<!DOCTYPE svg PUBLIC "-//W3C//DTD SVG 20010904//EN" "http://www.w3.org/TR/2001/REC-SVG-20010904/DTD/svg10.dtd">
<svg version="1.0" xmlns="http://www.w3.org/2000/svg" width="1280px" height="931px" viewBox="0 0 12800 9310" preserveAspectRatio="xMidYMid meet">
<g id="layer101" fill="#4183c4" stroke="none">
 <path d="M1160 8725 l0 -585 580 0 580 0 0 -575 0 -575 -580 0 -580 0 0 -585 0 -585 -580 0 -580 0 0 -2330 0 -2330 585 0 585 0 0 1165 0 1165 575 0 575 0 0 -585 0 -585 585 0 585 0 0 -575 0 -575 -585 0 -585 0 0 -585 0 -585 590 0 590 0 0 580 0 580 580 0 580 0 0 580 0 580 1740 0 1740 0 0 -580 0 -580 580 0 580 0 0 -580 0 -580 590 0 590 0 0 585 0 585 -585 0 -585 0 0 575 0 575 585 0 585 0 0 585 0 585 575 0 575 0 0 -1165 0 -1165 585 0 585 0 0 2330 0 2330 -580 0 -580 0 0 585 0 585 -580 0 -580 0 0 575 0 575 580 0 580 0 0 585 0 585 -585 0 -585 0 0 -580 0 -580 -585 0 -585 0 0 -580 0 -580 -2900 0 -2900 0 0 580 0 580 -585 0 -585 0 0 580 0 580 -585 0 -585 0 0 -585z m3490 -4650 l0 -575 -575 0 -575 0 0 575 0 575 575 0 575 0 0 -575z m4650 0 l0 -575 -575 0 -575 0 0 575 0 575 575 0 575 0 0 -575z"/>
 </g>

</svg>